<svg width="20" height="20" viewBox="0 0 20 20" fill="none" xmlns="http://www.w3.org/2000/svg">
<path d="M2 5C2 3.34315 3.34315 2 5 2H15C16.6569 2 18 3.34315 18 5V15C18 16.6569 16.6569 18 15 18H5C3.34315 18 2 16.6569 2 15V5Z" fill="#3F7BD7"/>
<path d="M8.77462 11.4733L12.9583 7.28958C13.0723 7.17563 13.2075 7.11865 13.3639 7.11865C13.5203 7.11865 13.6555 7.17563 13.7695 7.28958C13.8834 7.40353 13.9404 7.53872 13.9404 7.69515C13.9404 7.85158 13.8834 7.98676 13.7695 8.10071L9.17543 12.6947C9.06148 12.8087 8.92788 12.8657 8.77462 12.8657C8.62136 12.8657 8.48776 12.8087 8.37381 12.6947L6.22978 10.5507C6.11583 10.4368 6.06044 10.3016 6.0636 10.1452C6.06678 9.98872 6.12534 9.85353 6.23929 9.73958C6.35324 9.62563 6.48843 9.56865 6.64487 9.56865C6.80129 9.56865 6.93648 9.62563 7.05043 9.73958L8.77462 11.4733Z" fill="white"/>
</svg>
