<svg width="16" height="16" viewBox="0 0 16 16" fill="none" xmlns="http://www.w3.org/2000/svg">
<g id="Profile">
<path id="Vector" d="M14.4329 13.25C13.481 11.6044 12.0142 10.4244 10.3023 9.86499C11.1491 9.3609 11.8069 8.59279 12.1749 7.67861C12.5429 6.76444 12.6006 5.75474 12.3392 4.80459C12.0778 3.85444 11.5117 3.01636 10.7279 2.41907C9.94408 1.82178 8.98587 1.49829 8.00041 1.49829C7.01496 1.49829 6.05675 1.82178 5.27293 2.41907C4.48911 3.01636 3.92304 3.85444 3.66163 4.80459C3.40022 5.75474 3.45793 6.76444 3.82591 7.67861C4.19388 8.59279 4.85177 9.3609 5.69854 9.86499C3.98666 10.4237 2.51979 11.6037 1.56791 13.25C1.53301 13.3069 1.50985 13.3702 1.49982 13.4363C1.48978 13.5023 1.49307 13.5696 1.50949 13.6343C1.52591 13.6991 1.55512 13.7598 1.59541 13.8131C1.63569 13.8663 1.68624 13.911 1.74405 13.9444C1.80187 13.9778 1.86579 13.9992 1.93204 14.0075C1.9983 14.0158 2.06554 14.0108 2.1298 13.9926C2.19407 13.9745 2.25405 13.9437 2.30622 13.902C2.35838 13.8604 2.40168 13.8087 2.43354 13.75C3.61104 11.715 5.69229 10.5 8.00041 10.5C10.3085 10.5 12.3898 11.715 13.5673 13.75C13.5992 13.8087 13.6424 13.8604 13.6946 13.902C13.7468 13.9437 13.8068 13.9745 13.871 13.9926C13.9353 14.0108 14.0025 14.0158 14.0688 14.0075C14.135 13.9992 14.199 13.9778 14.2568 13.9444C14.3146 13.911 14.3651 13.8663 14.4054 13.8131C14.4457 13.7598 14.4749 13.6991 14.4913 13.6343C14.5078 13.5696 14.511 13.5023 14.501 13.4363C14.491 13.3702 14.4678 13.3069 14.4329 13.25ZM4.50041 5.99999C4.50041 5.30776 4.70568 4.63107 5.09027 4.0555C5.47485 3.47992 6.02148 3.03132 6.66102 2.76641C7.30056 2.50151 8.0043 2.43219 8.68323 2.56724C9.36216 2.70229 9.9858 3.03563 10.4753 3.52512C10.9648 4.0146 11.2981 4.63824 11.4332 5.31718C11.5682 5.99611 11.4989 6.69984 11.234 7.33938C10.9691 7.97892 10.5205 8.52555 9.94491 8.91014C9.36934 9.29472 8.69265 9.49999 8.00041 9.49999C7.07246 9.499 6.1828 9.12993 5.52664 8.47377C4.87047 7.81761 4.50141 6.92794 4.50041 5.99999Z" fill="#3F7BD7"/>
</g>
</svg>
