<svg width="16" height="16" viewBox="0 0 16 16" fill="none" xmlns="http://www.w3.org/2000/svg">
<path d="M14.6562 7.14863L11.8375 9.60863L12.6819 13.2711C12.7266 13.4626 12.7138 13.663 12.6452 13.8472C12.5766 14.0315 12.4552 14.1914 12.2962 14.3071C12.1372 14.4227 11.9477 14.489 11.7513 14.4975C11.5548 14.5059 11.3603 14.4564 11.1919 14.3549L7.9975 12.4174L4.81 14.3549C4.6416 14.4564 4.44703 14.5059 4.2506 14.4975C4.05418 14.489 3.86462 14.4227 3.70562 14.3071C3.54662 14.1914 3.42524 14.0315 3.35665 13.8472C3.28806 13.663 3.27531 13.4626 3.32 13.2711L4.16312 9.61238L1.34375 7.14863C1.19463 7.02002 1.0868 6.85024 1.03378 6.66059C0.980764 6.47094 0.98492 6.26986 1.04573 6.08257C1.10654 5.89527 1.22129 5.7301 1.37559 5.60776C1.5299 5.48542 1.71689 5.41137 1.91312 5.39488L5.62937 5.073L7.08 1.613C7.15575 1.43145 7.28353 1.27637 7.44724 1.16729C7.61095 1.05821 7.80327 1 8 1C8.19672 1 8.38904 1.05821 8.55275 1.16729C8.71646 1.27637 8.84424 1.43145 8.92 1.613L10.375 5.073L14.09 5.39488C14.2862 5.41137 14.4732 5.48542 14.6275 5.60776C14.7818 5.7301 14.8966 5.89527 14.9574 6.08257C15.0182 6.26986 15.0224 6.47094 14.9693 6.66059C14.9163 6.85024 14.8085 7.02002 14.6594 7.14863H14.6562Z" fill="#FFC700"/>
</svg>
