<svg width="16" height="16" viewBox="0 0 16 16" fill="none" xmlns="http://www.w3.org/2000/svg">
<g id="ICON_Comment">
<path id="Vector" d="M8.00044 1.5C6.87823 1.49976 5.77508 1.79006 4.79835 2.34264C3.82162 2.89523 3.0046 3.69128 2.4268 4.65331C1.849 5.61534 1.53012 6.71058 1.50118 7.83241C1.47225 8.95425 1.73425 10.0645 2.26169 11.055L1.55232 13.1831C1.49356 13.3593 1.48503 13.5484 1.52769 13.7292C1.57035 13.9099 1.66251 14.0753 1.79385 14.2066C1.92518 14.3379 2.0905 14.4301 2.27127 14.4728C2.45204 14.5154 2.64112 14.5069 2.81732 14.4481L4.94544 13.7388C5.81717 14.2024 6.78308 14.4614 7.76983 14.496C8.75659 14.5306 9.73827 14.34 10.6404 13.9386C11.5424 13.5372 12.3412 12.9355 12.9761 12.1793C13.6109 11.4231 14.0651 10.5322 14.3043 9.57421C14.5434 8.61624 14.5611 7.61638 14.3561 6.65052C14.1512 5.68467 13.7288 4.77821 13.1212 3.99995C12.5136 3.22169 11.7367 2.59208 10.8494 2.15891C9.96211 1.72574 8.98781 1.50041 8.00044 1.5ZM8.00044 13.5C7.03355 13.5007 6.08363 13.246 5.24669 12.7619C5.18541 12.7263 5.11729 12.7042 5.04682 12.697C4.97635 12.6898 4.90515 12.6976 4.83794 12.72L2.50044 13.5L3.27982 11.1625C3.30228 11.0953 3.31022 11.0242 3.30311 10.9537C3.296 10.8832 3.274 10.8151 3.23857 10.7537C2.6323 9.70557 2.38889 8.48661 2.54609 7.28598C2.70329 6.08534 3.25231 4.97014 4.108 4.11337C4.96368 3.2566 6.07819 2.70617 7.27863 2.54745C8.47906 2.38873 9.69833 2.63061 10.7473 3.23555C11.7962 3.8405 12.6162 4.77469 13.08 5.89322C13.5439 7.01175 13.6256 8.25208 13.3126 9.42181C12.9996 10.5915 12.3093 11.6253 11.3488 12.3626C10.3883 13.1 9.21133 13.4998 8.00044 13.5Z" fill="#8E8E93"/>
</g>
</svg>
