<svg width="20" height="20" viewBox="0 0 20 20" fill="none" xmlns="http://www.w3.org/2000/svg">
<g id="Sorting">
<path id="Vector" d="M10 10C10 10.1658 9.93415 10.3247 9.81694 10.4419C9.69973 10.5592 9.54076 10.625 9.375 10.625H3.75C3.58424 10.625 3.42527 10.5592 3.30806 10.4419C3.19085 10.3247 3.125 10.1658 3.125 10C3.125 9.83424 3.19085 9.67527 3.30806 9.55806C3.42527 9.44085 3.58424 9.375 3.75 9.375H9.375C9.54076 9.375 9.69973 9.44085 9.81694 9.55806C9.93415 9.67527 10 9.83424 10 10ZM3.75 5.625H14.375C14.5408 5.625 14.6997 5.55915 14.8169 5.44194C14.9342 5.32473 15 5.16576 15 5C15 4.83424 14.9342 4.67527 14.8169 4.55806C14.6997 4.44085 14.5408 4.375 14.375 4.375H3.75C3.58424 4.375 3.42527 4.44085 3.30806 4.55806C3.19085 4.67527 3.125 4.83424 3.125 5C3.125 5.16576 3.19085 5.32473 3.30806 5.44194C3.42527 5.55915 3.58424 5.625 3.75 5.625ZM8.125 14.375H3.75C3.58424 14.375 3.42527 14.4408 3.30806 14.5581C3.19085 14.6753 3.125 14.8342 3.125 15C3.125 15.1658 3.19085 15.3247 3.30806 15.4419C3.42527 15.5592 3.58424 15.625 3.75 15.625H8.125C8.29076 15.625 8.44973 15.5592 8.56694 15.4419C8.68415 15.3247 8.75 15.1658 8.75 15C8.75 14.8342 8.68415 14.6753 8.56694 14.5581C8.44973 14.4408 8.29076 14.375 8.125 14.375ZM17.9422 12.6828C17.8841 12.6247 17.8152 12.5786 17.7393 12.5471C17.6635 12.5157 17.5821 12.4995 17.5 12.4995C17.4179 12.4995 17.3365 12.5157 17.2607 12.5471C17.1848 12.5786 17.1159 12.6247 17.0578 12.6828L15 14.7414V8.75C15 8.58424 14.9342 8.42527 14.8169 8.30806C14.6997 8.19085 14.5408 8.125 14.375 8.125C14.2092 8.125 14.0503 8.19085 13.9331 8.30806C13.8158 8.42527 13.75 8.58424 13.75 8.75V14.7414L11.6922 12.6828C11.5749 12.5655 11.4159 12.4997 11.25 12.4997C11.0841 12.4997 10.9251 12.5655 10.8078 12.6828C10.6905 12.8001 10.6247 12.9591 10.6247 13.125C10.6247 13.2909 10.6905 13.4499 10.8078 13.5672L13.9328 16.6922C13.9909 16.7503 14.0598 16.7964 14.1357 16.8279C14.2115 16.8593 14.2929 16.8755 14.375 16.8755C14.4571 16.8755 14.5385 16.8593 14.6143 16.8279C14.6902 16.7964 14.7591 16.7503 14.8172 16.6922L17.9422 13.5672C18.0003 13.5091 18.0464 13.4402 18.0779 13.3643C18.1093 13.2885 18.1255 13.2071 18.1255 13.125C18.1255 13.0429 18.1093 12.9615 18.0779 12.8857C18.0464 12.8098 18.0003 12.7409 17.9422 12.6828Z" fill="#222222"/>
</g>
</svg>
