<svg width="36" height="36" viewBox="0 0 36 36" fill="none" xmlns="http://www.w3.org/2000/svg">
<path d="M16.125 11.125H12.375C12.0435 11.125 11.7255 11.2567 11.4911 11.4911C11.2567 11.7255 11.125 12.0435 11.125 12.375V16.125C11.125 16.4565 11.2567 16.7745 11.4911 17.0089C11.7255 17.2433 12.0435 17.375 12.375 17.375H16.125C16.4565 17.375 16.7745 17.2433 17.0089 17.0089C17.2433 16.7745 17.375 16.4565 17.375 16.125V12.375C17.375 12.0435 17.2433 11.7255 17.0089 11.4911C16.7745 11.2567 16.4565 11.125 16.125 11.125ZM16.125 16.125H12.375V12.375H16.125V16.125ZM23.625 11.125H19.875C19.5435 11.125 19.2255 11.2567 18.9911 11.4911C18.7567 11.7255 18.625 12.0435 18.625 12.375V16.125C18.625 16.4565 18.7567 16.7745 18.9911 17.0089C19.2255 17.2433 19.5435 17.375 19.875 17.375H23.625C23.9565 17.375 24.2745 17.2433 24.5089 17.0089C24.7433 16.7745 24.875 16.4565 24.875 16.125V12.375C24.875 12.0435 24.7433 11.7255 24.5089 11.4911C24.2745 11.2567 23.9565 11.125 23.625 11.125ZM23.625 16.125H19.875V12.375H23.625V16.125ZM16.125 18.625H12.375C12.0435 18.625 11.7255 18.7567 11.4911 18.9911C11.2567 19.2255 11.125 19.5435 11.125 19.875V23.625C11.125 23.9565 11.2567 24.2745 11.4911 24.5089C11.7255 24.7433 12.0435 24.875 12.375 24.875H16.125C16.4565 24.875 16.7745 24.7433 17.0089 24.5089C17.2433 24.2745 17.375 23.9565 17.375 23.625V19.875C17.375 19.5435 17.2433 19.2255 17.0089 18.9911C16.7745 18.7567 16.4565 18.625 16.125 18.625ZM16.125 23.625H12.375V19.875H16.125V23.625ZM23.625 18.625H19.875C19.5435 18.625 19.2255 18.7567 18.9911 18.9911C18.7567 19.2255 18.625 19.5435 18.625 19.875V23.625C18.625 23.9565 18.7567 24.2745 18.9911 24.5089C19.2255 24.7433 19.5435 24.875 19.875 24.875H23.625C23.9565 24.875 24.2745 24.7433 24.5089 24.5089C24.7433 24.2745 24.875 23.9565 24.875 23.625V19.875C24.875 19.5435 24.7433 19.2255 24.5089 18.9911C24.2745 18.7567 23.9565 18.625 23.625 18.625ZM23.625 23.625H19.875V19.875H23.625V23.625Z" fill="#1A142D"/>
</svg>
